<?xml version="1.0" encoding="UTF-8"?> <svg xmlns="http://www.w3.org/2000/svg" xmlns:xlink="http://www.w3.org/1999/xlink" version="1.1" id="Warstwa_1" x="0px" y="0px" width="396.407px" height="86.227px" viewBox="0 0 396.407 86.227" xml:space="preserve"> <g> <g> <polygon fill="#21386F" points="96.652,80.498 104.475,80.498 104.475,78.645 98.734,78.645 98.734,74.001 104.309,74.001 104.309,72.15 98.734,72.15 98.734,68.801 104.475,68.801 104.475,66.95 96.652,66.95 "></polygon> <polygon fill="#21386F" points="116.897,66.95 114.511,66.95 111.583,71.606 108.833,66.95 106.451,66.95 110.396,73.406 105.91,80.498 108.257,80.498 111.576,75.242 114.768,80.498 117.113,80.498 112.78,73.411 "></polygon> <polygon fill="#21386F" points="117.793,68.801 121.099,68.801 121.099,80.498 123.179,80.498 123.179,68.801 126.486,68.801 126.486,66.95 117.793,66.95 "></polygon> <polygon fill="#21386F" points="128.614,80.498 136.438,80.498 136.438,78.645 130.695,78.645 130.695,74.001 136.272,74.001 136.272,72.15 130.695,72.15 130.695,68.801 136.438,68.801 136.438,66.95 128.614,66.95 "></polygon> <polygon fill="#21386F" points="134.078,63.844 132.575,63.844 130.974,66.192 131.785,66.192 "></polygon> <path fill="#21386F" d="M147.295,70.887c0-1.38-0.735-2.646-1.919-3.304c-1.179-0.634-2.608-0.634-3.757-0.634h-2.278v13.548 h2.083v-5.585h0.459l4.048,5.514l0.052,0.071h2.543l-4.431-5.788C145.995,74.365,147.295,72.831,147.295,70.887z M145.325,70.957 c0,1.552-1.085,2.245-3.52,2.245h-0.381v-4.435h0.289C144.176,68.767,145.325,69.462,145.325,70.957z"></path> <rect x="150.421" y="66.95" fill="#21386F" width="2.081" height="13.548"></rect> <polygon fill="#21386F" points="155.869,80.498 163.692,80.498 163.692,78.645 157.949,78.645 157.949,74.001 163.526,74.001 163.526,72.15 157.949,72.15 157.949,68.801 163.692,68.801 163.692,66.95 155.869,66.95 "></polygon> <path fill="#21386F" d="M174.813,74.915c0,2.676-1.043,3.977-3.188,3.977c-2.146,0-3.188-1.301-3.188-3.977V66.95h-2.081v8.524 c0,3.171,2.117,5.304,5.27,5.304c3.15,0,5.269-2.133,5.269-5.304V66.95h-2.081V74.915z"></path> <path fill="#21386F" d="M184.81,74.709c1.899-0.345,3.2-1.879,3.2-3.822c0-1.38-0.734-2.646-1.919-3.304 c-1.179-0.634-2.608-0.634-3.756-0.634h-2.279v13.548h2.081v-5.585h0.461l4.046,5.514l0.054,0.071h2.542L184.81,74.709z M186.039,70.957c0,1.552-1.085,2.245-3.519,2.245h-0.383v-4.435h0.29C184.892,68.767,186.039,69.462,186.039,70.957z"></path> </g> <g> <path fill="#21386F" d="M111.134,6.087h13.449v32.104c0,3.494-0.225,6.174-0.676,8.044c-0.45,1.871-1.192,3.526-2.229,4.969 c-1.375,1.869-3.064,3.283-5.07,4.24c-2.005,0.958-4.259,1.438-6.759,1.438c-3.109,0-5.881-0.667-8.314-1.995 s-4.518-3.3-6.252-5.914l8.245-7.469c0.204,1.465,0.676,2.592,1.421,3.38c0.744,0.789,1.677,1.183,2.806,1.183 c1.283,0,2.167-0.709,2.651-2.13c0.485-1.419,0.728-4.968,0.728-10.645V6.087z"></path> <path fill="#21386F" d="M191.297,55.564h-12.605l-2.907-21.393c-0.201-1.51-0.389-3.188-0.558-5.035 c-0.169-1.849-0.319-3.865-0.456-6.05c-0.316,2.095-0.935,4.709-1.857,7.84c-0.204,0.654-0.35,1.138-0.44,1.453l-6.725,23.185 h-8.991l-6.724-23.185c-0.091-0.315-0.226-0.799-0.407-1.453c-0.945-3.131-1.565-5.733-1.857-7.807 c-0.137,1.87-0.293,3.724-0.475,5.559c-0.179,1.838-0.394,3.667-0.641,5.493l-2.906,21.393h-12.539l7.639-49.477h13.35 l7.469,25.516c0.045,0.18,0.134,0.472,0.27,0.878c0.698,2.275,1.138,4.225,1.318,5.848c0.089-0.88,0.258-1.854,0.507-2.925 c0.247-1.069,0.585-2.36,1.014-3.868l7.536-25.448h13.383L191.297,55.564z"></path> <path fill="#21386F" d="M220.226,55.564V6.087h30.315v10.849h-17.168v8.583h16.188V36.13h-16.188v8.349h17.168v11.085H220.226z"></path> <path fill="#21386F" d="M276.968,17.577l0.068,0.136c0.788,1.486,1.317,2.793,1.588,3.92c0.247-1.036,0.755-2.264,1.521-3.683 c0.089-0.159,0.157-0.282,0.202-0.373l5.948-11.489h15.985l-16.526,23.792l18.284,25.685h-15.309l-8.383-14.669 c-0.383-0.651-0.721-1.322-1.014-2.011c-0.293-0.686-0.529-1.38-0.71-2.078c-0.202,0.791-0.439,1.522-0.709,2.198 c-0.271,0.676-0.587,1.306-0.947,1.891l-8.449,14.669H253.21l18.351-25.956L254.968,6.087h16.053L276.968,17.577z"></path> <path fill="#21386F" d="M308.669,55.564V6.087h13.619v49.477H308.669z"></path> <path fill="#21386F" d="M389.915,55.564h-12.605l-2.906-21.393c-0.202-1.51-0.389-3.188-0.558-5.035 c-0.169-1.849-0.321-3.865-0.456-6.05c-0.315,2.095-0.936,4.709-1.859,7.84c-0.202,0.654-0.349,1.138-0.439,1.453l-6.725,23.185 h-8.99l-6.726-23.185c-0.089-0.315-0.225-0.799-0.405-1.453c-0.946-3.131-1.566-5.733-1.858-7.807 c-0.136,1.87-0.293,3.724-0.474,5.559c-0.18,1.838-0.394,3.667-0.643,5.493l-2.906,21.393h-12.538l7.638-49.477h13.35 l7.469,25.516c0.045,0.18,0.136,0.472,0.271,0.878c0.697,2.275,1.137,4.225,1.316,5.848c0.092-0.88,0.26-1.854,0.508-2.925 c0.248-1.069,0.586-2.36,1.014-3.868l7.537-25.448h13.384L389.915,55.564z"></path> </g> <g> <polygon fill="#21386F" points="316.115,67.059 313.351,67.059 307.708,72.53 307.708,67.059 305.633,67.059 305.633,80.556 307.708,80.556 307.708,74.966 308.217,74.507 313.379,80.556 316.173,80.556 309.686,73.157 "></polygon> <path fill="#21386F" d="M324.238,66.779c-4.102,0-7.439,3.153-7.439,7.029c0,3.94,3.268,7.027,7.439,7.027 c4.171,0,7.439-3.087,7.439-7.027C331.677,69.932,328.338,66.779,324.238,66.779z M324.238,78.956 c-2.958,0-5.366-2.308-5.366-5.147c0-2.937,2.309-5.15,5.366-5.15c3.059,0,5.365,2.214,5.365,5.15 C329.603,76.648,327.197,78.956,324.238,78.956z"></path> <polygon fill="#21386F" points="344.356,76.534 333.943,66.19 333.943,80.556 336.017,80.556 336.017,70.995 346.43,81.337 346.43,67.059 344.356,67.059 "></polygon> <path fill="#21386F" d="M354.429,72.443l-0.995-0.367c-1.223-0.443-1.818-1.007-1.818-1.723c0-1.046,1.114-1.695,2.147-1.695 c0.947,0,1.569,0.348,2.078,1.161l0.088,0.138l1.677-0.953l-0.09-0.151c-0.792-1.336-2.113-2.073-3.717-2.073 c-2.063,0-4.258,1.255-4.258,3.574c0,1.954,1.58,2.862,3.128,3.492l0.956,0.386c1.105,0.433,2.282,1.008,2.282,2.332 c0,1.342-1.047,2.393-2.384,2.393c-0.729,0-1.415-0.271-1.884-0.748c-0.42-0.425-0.638-0.969-0.631-1.572l0.004-0.213 l-2.116,0.424l0.023,0.16c0.309,2.22,2.184,3.829,4.455,3.829c2.627,0,4.607-1.836,4.607-4.272 C357.983,74.097,356.186,73.096,354.429,72.443z"></path> <polygon fill="#21386F" points="368.006,67.059 359.347,67.059 359.347,68.905 362.639,68.905 362.639,80.556 364.714,80.556 364.714,68.905 368.006,68.905 "></polygon> <path fill="#21386F" d="M367.082,80.556h2.241l1.582-3.297h6.148l1.582,3.297h2.24l-6.896-14.28L367.082,80.556z M373.979,70.676 l2.196,4.738h-4.392L373.979,70.676z"></path> <polygon fill="#21386F" points="384.765,78.711 384.765,67.059 382.691,67.059 382.691,80.556 388.978,80.556 388.978,78.711 "></polygon> </g> <g> <polygon fill="#21386F" points="204.13,80.513 206.204,80.513 206.204,74.057 211.024,74.057 211.024,72.212 206.204,72.212 206.204,68.858 211.19,68.858 211.19,67.014 204.13,67.014 "></polygon> <polygon fill="#21386F" points="213.973,80.513 221.767,80.513 221.767,78.667 216.045,78.667 216.045,74.042 221.604,74.042 221.604,72.196 216.045,72.196 216.045,68.858 221.767,68.858 221.767,67.014 213.973,67.014 "></polygon> <polygon fill="#21386F" points="234.908,76.49 224.496,66.144 224.496,80.513 226.568,80.513 226.568,70.951 236.982,81.295 236.982,67.014 234.908,67.014 "></polygon> <polygon fill="#21386F" points="240.204,80.513 248,80.513 248,78.667 242.279,78.667 242.279,74.042 247.833,74.042 247.833,72.196 242.279,72.196 242.279,68.858 248,68.858 248,67.014 240.204,67.014 "></polygon> <polygon fill="#21386F" points="249.604,68.858 252.898,68.858 252.898,80.513 254.972,80.513 254.972,68.858 258.264,68.858 258.264,67.014 249.604,67.014 "></polygon> <path fill="#21386F" d="M268.309,70.937c0-1.372-0.733-2.634-1.912-3.292c-1.175-0.631-2.598-0.631-3.742-0.631h-2.271v13.499 h2.074v-5.564h0.459l4.03,5.492l0.055,0.072h2.531l-4.412-5.768C267.011,74.403,268.309,72.875,268.309,70.937z M266.346,71.006 c0,1.547-1.082,2.237-3.508,2.237h-0.38v-4.421h0.289C265.202,68.823,266.346,69.518,266.346,71.006z"></path> <polygon fill="#21386F" points="271.477,80.513 279.272,80.513 279.272,78.667 273.55,78.667 273.55,74.042 279.107,74.042 279.107,72.196 273.55,72.196 273.55,68.858 279.272,68.858 279.272,67.014 271.477,67.014 "></polygon> <path fill="#21386F" d="M286.942,72.399l-0.994-0.367c-1.226-0.443-1.819-1.008-1.819-1.723c0-1.046,1.113-1.694,2.146-1.694 c0.948,0,1.569,0.347,2.079,1.16l0.089,0.137l1.675-0.951l-0.09-0.152c-0.791-1.335-2.111-2.072-3.716-2.072 c-2.063,0-4.256,1.252-4.256,3.573c0,1.953,1.579,2.863,3.125,3.49l0.956,0.385c1.104,0.437,2.282,1.01,2.282,2.335 c0,1.343-1.046,2.394-2.385,2.394c-0.727,0-1.415-0.271-1.883-0.748c-0.421-0.424-0.639-0.97-0.63-1.574l0.003-0.211l-2.116,0.422 l0.021,0.16c0.31,2.219,2.185,3.828,4.458,3.828c2.627,0,4.605-1.835,4.605-4.271C290.494,74.053,288.699,73.053,286.942,72.399z"></path> <polygon fill="#21386F" points="244.631,63.922 243.551,63.922 241.955,66.259 242.763,66.259 244.088,64.934 245.422,66.259 246.248,66.259 "></polygon> </g> <rect x="25.69" y="6.087" fill="#21386F" width="51.667" height="51.666"></rect> <rect x="7.69" y="29.253" fill="#479A36" width="51.667" height="51.666"></rect> </g> </svg> 